<svg version="1.1" id="Layer_1" xmlns="http://www.w3.org/2000/svg" xmlns:xlink="http://www.w3.org/1999/xlink" x="0px" y="0px"
	 width="100%" viewBox="0 0 571 318" enable-background="new 0 0 571 318" xml:space="preserve">
<path fill="#000000" opacity="1.000000" stroke="none" 
	d="
M339.000000,319.000000 
	C226.031616,319.000000 113.563232,319.000000 1.047425,319.000000 
	C1.047425,213.061432 1.047425,107.122826 1.047425,1.092110 
	C191.218399,1.092110 381.436859,1.092110 571.827637,1.092110 
	C571.827637,106.999779 571.827637,212.999863 571.827637,319.000000 
	C494.456146,319.000000 416.978058,319.000000 339.000000,319.000000 
M279.734497,35.271660 
	C278.899017,35.389580 278.063507,35.507504 276.700165,35.340187 
	C276.111328,35.398010 275.522461,35.455837 274.074097,35.269142 
	C271.127808,35.352757 268.181519,35.436371 264.615051,35.325665 
	C263.759338,35.388550 262.903595,35.451435 261.148224,35.269695 
	C256.725891,35.351601 252.303574,35.433506 247.341217,35.357372 
	C247.161865,35.412224 246.982513,35.467079 245.960648,35.271900 
	C243.042572,35.354404 240.124512,35.436909 236.533798,35.324696 
	C235.614807,35.387196 234.695801,35.449696 233.034134,35.256966 
	C231.656189,35.581841 230.278229,35.906715 228.900284,36.231586 
	C228.908737,36.732723 228.917175,37.233856 228.925629,37.734989 
	C237.535614,37.715584 244.227844,40.586479 246.879013,49.183079 
	C246.879013,49.183079 246.920776,49.527660 246.920776,49.527660 
	C246.920776,49.527660 247.210876,49.530869 247.324814,50.384777 
	C247.453110,50.944050 247.581406,51.503323 247.449127,52.569660 
	C247.555862,53.109798 247.662613,53.649937 247.669418,55.098835 
	C247.767090,63.226646 247.864746,71.354462 247.727737,80.136337 
	C247.807434,81.051193 247.887115,81.966049 247.719162,83.657173 
	C247.800537,87.108398 247.881912,90.559624 247.713547,94.917427 
	C247.796799,101.281067 247.880035,107.644707 247.711426,114.822777 
	C247.740021,116.799713 247.768631,118.776649 247.523697,121.549591 
	C247.627014,126.767090 247.730331,131.984589 247.698441,137.729767 
	C247.743317,138.087936 247.788193,138.446106 247.550919,139.595016 
	C247.530731,155.062500 247.559723,170.530273 247.472946,185.997391 
	C247.415665,196.205856 242.246902,201.715179 232.154587,202.655045 
	C231.034256,202.759369 229.940323,203.146866 227.434387,203.727203 
	C238.770874,206.740311 248.533401,209.335098 258.886261,212.245163 
	C260.066101,212.916351 261.245972,213.587524 264.483887,215.429489 
	C259.510498,219.582840 255.232559,222.812897 251.391846,226.498535 
	C249.277374,228.527603 247.688354,228.482010 245.299454,227.262161 
	C240.406967,224.763901 235.439438,222.376343 230.364227,220.278473 
	C208.887711,211.401001 187.972153,200.802979 164.031342,199.669434 
	C155.177673,199.250244 146.551041,199.447617 138.264236,202.882355 
	C119.542610,210.642212 108.303108,230.169205 112.612343,248.154251 
	C116.584137,264.730957 128.324738,273.606537 144.080811,277.536072 
	C162.215134,282.058807 180.174377,279.781067 197.846512,274.639557 
	C220.404709,268.076508 240.152374,256.049316 258.951080,242.372787 
	C262.382477,239.876373 264.791168,239.681808 268.704620,241.444992 
	C292.224457,252.041718 315.682617,262.847748 339.643127,272.371765 
	C359.748291,280.363281 380.978699,284.095673 402.760132,283.345428 
	C429.794708,282.414185 449.355225,270.219543 460.184875,244.648956 
	C460.335754,244.469788 460.340179,244.287064 460.580872,243.380920 
	C460.664917,243.122498 460.748993,242.864075 461.176697,242.344559 
	C461.220886,241.934006 461.265106,241.523438 461.654358,240.409424 
	C461.722870,240.157410 461.791412,239.905396 462.108704,239.588440 
	C462.291840,239.342026 462.276917,239.116028 462.324066,238.343903 
	C462.503235,237.747559 462.682434,237.151215 463.210052,236.309265 
	C463.221893,235.750168 463.233734,235.191086 463.496918,234.153992 
	C463.622406,233.630264 463.747894,233.106552 464.105286,232.563309 
	C464.273438,232.328766 464.240906,232.135941 464.210846,231.350876 
	C464.220581,230.910248 464.230316,230.469604 464.426666,229.800903 
	C464.426666,229.800903 464.417633,229.506363 464.731598,229.043716 
	C464.756897,228.676392 464.782166,228.309067 464.897675,227.878845 
	C464.897675,227.878845 464.860901,227.775177 465.188385,227.489532 
	C465.175293,226.928741 465.162201,226.367950 465.302368,225.348114 
	C465.378662,225.027985 465.380096,224.707535 465.531647,224.016281 
	C465.381805,223.638443 465.231964,223.260605 465.067902,222.098602 
	C464.769501,215.267700 464.445343,208.437790 464.178894,201.605637 
	C463.806122,192.047043 459.832367,183.763733 455.121216,175.514252 
	C455.121216,175.514252 454.922699,175.410645 454.823853,174.875916 
	C454.595459,174.597336 454.367065,174.318771 454.151520,173.617325 
	C453.670990,172.932877 453.190460,172.248413 452.431854,170.907089 
	C445.806305,160.800034 437.641235,152.279724 426.641022,145.903366 
	C426.463440,145.870178 426.285828,145.837006 425.634338,145.317459 
	C424.824493,144.928482 424.014618,144.539490 423.042572,143.823059 
	C422.699371,143.739136 422.356140,143.655197 421.711884,143.138046 
	C421.594299,143.007294 421.476685,142.876556 421.222748,142.883240 
	C421.222748,142.883240 421.528351,142.818817 420.671570,142.585419 
	C419.295380,142.056274 417.919220,141.527115 416.544586,140.808105 
	C416.544586,140.808105 416.262390,140.899536 415.428345,140.407333 
	C415.120331,140.310654 414.812347,140.213974 414.464355,139.889191 
	C414.236938,139.726730 414.028442,139.733719 413.316467,139.569855 
	C412.721161,139.398056 412.125854,139.226242 411.278534,138.771118 
	C410.910370,138.741669 410.542206,138.712234 409.509918,138.245636 
	C381.257874,131.030228 354.646545,134.245667 329.638916,150.743820 
	C329.020813,151.244568 328.402679,151.745316 327.142517,152.498718 
	C325.679321,153.553696 324.216125,154.608673 322.086060,155.858109 
	C307.275970,166.402527 294.605347,179.222183 282.145142,193.164383 
	C279.050171,196.587433 275.731537,199.839035 272.933563,203.489700 
	C270.830872,206.233185 268.847870,206.951141 265.839539,204.167648 
	C265.153687,200.504852 264.168488,196.867310 263.857056,193.172943 
	C263.459473,188.456482 263.605804,183.694183 263.677032,178.036697 
	C263.601318,173.014801 263.525574,167.992889 263.658936,162.059998 
	C263.591064,155.708527 263.523193,149.357040 263.662476,142.120010 
	C263.583588,139.403503 263.504700,136.687012 263.649719,133.064774 
	C263.564148,128.036484 263.478607,123.008186 263.621796,117.117043 
	C263.543274,114.746841 263.464783,112.376633 263.647278,109.186897 
	C263.625122,107.468971 263.602966,105.751045 263.780273,103.499084 
	C263.714081,103.320961 263.647919,103.142845 263.686676,102.064194 
	C263.596466,99.047218 263.506287,96.030243 263.647888,92.132957 
	C263.564362,89.415848 263.480835,86.698738 263.642365,83.083931 
	C263.568970,78.723892 263.495575,74.363861 263.663788,69.095177 
	C263.685486,64.792969 263.712372,60.490784 263.727875,56.188557 
	C263.766022,45.602360 266.992462,41.152706 277.700836,38.067223 
	C278.461975,38.002026 279.223083,37.936829 280.484009,38.002956 
	C280.687683,37.755669 280.891357,37.508381 281.772400,36.932098 
	C281.486694,36.473270 281.200989,36.014442 280.689850,35.323395 
	C280.689850,35.323395 280.422302,35.505493 280.349518,35.489616 
	C280.349518,35.489616 280.316956,35.556633 279.734497,35.271660 
z"/>
<path fill="#A2843C" opacity="1.000000" stroke="none" 
	d="
M464.240051,230.028976 
	C464.230316,230.469604 464.220581,230.910248 464.044189,231.810303 
	C463.877533,232.269745 463.873413,232.582825 463.873413,232.582825 
	C463.747894,233.106552 463.622406,233.630264 463.253784,234.703217 
	C462.960938,235.686584 462.911285,236.120728 462.861633,236.554886 
	C462.682434,237.151215 462.503235,237.747559 462.110535,238.804108 
	C461.896973,239.264328 461.859924,239.653366 461.859924,239.653366 
	C461.791412,239.905396 461.722870,240.157410 461.361084,240.921539 
	C460.989594,241.824326 460.911346,242.214981 460.833069,242.605652 
	C460.748993,242.864075 460.664917,243.122498 460.302795,243.835159 
	C459.931519,244.442413 459.897278,244.607651 459.921967,244.785126 
	C449.355225,270.219543 429.794708,282.414185 402.760132,283.345428 
	C380.978699,284.095673 359.748291,280.363281 339.643127,272.371765 
	C315.682617,262.847748 292.224457,252.041718 268.704620,241.444992 
	C264.791168,239.681808 262.382477,239.876373 258.951080,242.372787 
	C240.152374,256.049316 220.404709,268.076508 197.846512,274.639557 
	C180.174377,279.781067 162.215134,282.058807 144.080811,277.536072 
	C128.324738,273.606537 116.584137,264.730957 112.612343,248.154251 
	C108.303108,230.169205 119.542610,210.642212 138.264236,202.882355 
	C146.551041,199.447617 155.177673,199.250244 164.031342,199.669434 
	C187.972153,200.802979 208.887711,211.401001 230.364227,220.278473 
	C235.439438,222.376343 240.406967,224.763901 245.299454,227.262161 
	C247.688354,228.482010 249.277374,228.527603 251.391846,226.498535 
	C255.232559,222.812897 259.510498,219.582840 264.483887,215.429489 
	C261.245972,213.587524 260.066101,212.916351 258.887268,212.031815 
	C263.058258,210.633408 263.250427,213.978485 264.046478,216.757431 
	C259.915222,221.324448 255.926773,225.607239 251.866531,229.967117 
	C262.711548,236.581497 262.718933,236.590958 271.940063,229.396011 
	C275.067322,226.955917 278.146881,224.454712 281.528809,222.035828 
	C282.538452,222.299927 283.267517,222.509613 284.182861,222.821869 
	C284.615692,223.070236 284.831940,223.252090 284.649353,223.521942 
	C278.372406,228.007446 272.464020,232.440994 266.076752,237.233917 
	C292.955566,250.447235 318.892120,263.273407 346.584351,272.012207 
	C365.264282,277.906952 384.321075,281.479614 404.038696,280.526581 
	C434.415802,279.058319 455.501709,260.838837 461.484802,230.927002 
	C462.041382,230.540558 462.390045,230.250793 463.113770,229.983597 
	C463.739227,230.013763 463.989624,230.021362 464.240051,230.028976 
M221.051208,219.219727 
	C205.996567,213.952896 191.229050,207.511932 175.808624,203.740768 
	C159.532532,199.760345 143.098358,200.411011 128.767334,211.643967 
	C107.757530,228.111938 110.131744,259.125244 134.056915,270.747009 
	C145.901443,276.500549 157.760880,278.722839 171.992645,273.839600 
	C196.457291,265.445282 219.139557,254.904266 238.728806,237.989990 
	C241.187073,235.867386 243.505539,233.582870 246.628738,230.687332 
	C237.724640,226.676682 229.742722,223.081390 221.051208,219.219727 
M259.714447,238.252518 
	C254.410629,232.395432 249.648788,231.860550 244.282425,236.695038 
	C224.952408,254.109177 203.163376,267.161621 178.006622,274.302826 
	C177.098694,274.560577 176.279999,275.132660 175.419708,275.558228 
	C207.631531,272.815033 234.064682,257.170593 259.714447,238.252518 
M173.285202,276.629730 
	C173.228485,276.472504 173.171768,276.315247 173.115067,276.158020 
	C173.057327,276.317749 172.999573,276.477509 173.285202,276.629730 
z"/>
<path fill="#AD8E43" opacity="1.000000" stroke="none" 
	d="
M285.017883,223.470001 
	C284.831940,223.252090 284.615692,223.070236 284.153534,222.511368 
	C282.927277,221.798279 281.916626,221.498276 280.556122,221.145630 
	C277.071899,219.627625 273.937561,218.162247 270.640167,216.369827 
	C269.354980,215.684814 268.232849,215.326843 266.773254,214.983795 
	C265.686951,215.490204 264.938110,215.981705 264.189270,216.473221 
	C263.250427,213.978485 263.058258,210.633408 258.592102,211.874176 
	C248.533401,209.335098 238.770874,206.740311 227.434387,203.727203 
	C229.940323,203.146866 231.034256,202.759369 232.154587,202.655045 
	C242.246902,201.715179 247.415665,196.205856 247.472946,185.997391 
	C247.559723,170.530273 247.530731,155.062500 247.811890,139.633331 
	C248.183167,141.757568 248.293472,143.843521 248.351349,146.397919 
	C248.514755,152.590149 248.730591,158.313919 248.881256,164.410706 
	C248.873230,169.200485 249.024628,173.618668 248.957184,178.033539 
	C248.904831,181.460617 250.660675,182.520569 253.644424,181.805984 
	C256.972473,181.008957 260.229645,179.915878 263.517700,178.951630 
	C263.605804,183.694183 263.459473,188.456482 263.857056,193.172943 
	C264.168488,196.867310 265.153687,200.504852 266.118103,204.808197 
	C268.593018,206.653519 270.789337,207.858261 273.338928,209.124207 
	C274.109772,209.414337 274.527405,209.643295 274.979614,210.095398 
	C276.322968,210.603363 277.631714,210.888168 279.385681,211.247604 
	C280.379639,211.566879 280.928406,211.811523 281.484711,212.046692 
	C281.492279,212.037216 281.528381,212.074524 281.894653,212.105499 
	C283.841858,212.758240 285.422791,213.379974 286.811554,214.241333 
	C284.011993,218.558517 287.836761,218.253143 289.742188,218.605576 
	C291.385162,218.909454 293.209991,218.229843 294.940186,218.320618 
	C294.029358,219.202133 293.120270,219.728683 292.238892,220.298111 
	C290.450256,221.453674 288.676605,222.632431 286.765564,223.824783 
	C286.634338,223.847961 286.371643,223.892929 286.023743,223.817535 
	C285.456482,223.651443 285.237183,223.560715 285.017883,223.470001 
M277.885040,216.616501 
	C277.865204,216.848404 277.845398,217.080292 277.825592,217.312195 
	C277.957001,217.316040 278.088409,217.319885 278.219818,217.323715 
	C278.211487,217.090805 278.203156,216.857910 277.885040,216.616501 
M272.473755,211.499374 
	C272.473755,211.499374 272.511597,211.486008 272.473755,211.499374 
M262.476624,181.543365 
	C262.476624,181.543365 262.454651,181.488678 262.476624,181.543365 
z"/>
<path fill="#E6CA69" opacity="1.000000" stroke="none" 
	d="
M237.206436,35.519409 
	C240.124512,35.436909 243.042572,35.354404 246.512650,35.511658 
	C247.336853,35.672752 247.609055,35.594082 247.881256,35.515411 
	C252.303574,35.433506 256.725891,35.351601 261.750671,35.645760 
	C263.313812,35.854542 264.274506,35.687263 265.235229,35.519985 
	C268.181519,35.436371 271.127808,35.352757 274.579834,35.725616 
	C275.704010,36.781326 276.322388,37.380566 276.940765,37.979805 
	C266.992462,41.152706 263.766022,45.602360 263.727875,56.188557 
	C263.712372,60.490784 263.685486,64.792969 263.275879,69.703377 
	C258.558319,74.419067 254.531052,79.018738 247.962418,79.482269 
	C247.864746,71.354462 247.767090,63.226646 247.853546,54.391792 
	C247.928345,53.144032 247.819031,52.603313 247.709717,52.062595 
	C247.581406,51.503323 247.453110,50.944050 247.321854,49.851261 
	C247.318893,49.317745 247.122696,49.180504 247.122696,49.180504 
	C244.227844,40.586479 237.535614,37.715584 228.925629,37.734989 
	C228.917175,37.233856 228.908737,36.732723 228.900284,36.231586 
	C230.278229,35.906715 231.656189,35.581841 233.164505,35.527859 
	C233.149811,35.874165 232.988403,35.929523 232.864288,36.030643 
	C232.741592,36.130600 232.656555,36.276779 232.554993,36.402679 
	C234.105469,36.108257 235.655960,35.813835 237.206436,35.519409 
z"/>
<path fill="#DBBC5D" opacity="1.000000" stroke="none" 
	d="
M247.797241,120.753586 
	C247.768631,118.776649 247.740021,116.799713 248.250702,114.418747 
	C253.188263,113.681938 257.586517,113.349152 261.987091,113.372482 
	C262.457275,115.145699 262.925171,116.562798 263.393066,117.979889 
	C263.478607,123.008186 263.564148,128.036484 263.111786,133.525452 
	C257.843628,134.644699 253.113373,135.303284 248.336456,135.499115 
	C248.125610,130.275421 247.961426,125.514503 247.797241,120.753586 
z"/>
<path fill="#E3C563" opacity="1.000000" stroke="none" 
	d="
M261.984802,113.016357 
	C257.586517,113.349152 253.188263,113.681938 248.376648,114.011536 
	C247.880035,107.644707 247.796799,101.281067 248.244476,94.466110 
	C253.693298,94.231476 258.742523,96.367958 263.416107,93.013268 
	C263.506287,96.030243 263.596466,99.047218 263.485168,102.610565 
	C263.382721,103.449005 263.481781,103.741066 263.580811,104.033119 
	C263.602966,105.751045 263.625122,107.468971 263.266602,109.749298 
	C262.585571,111.213257 262.285187,112.114807 261.984802,113.016357 
z"/>
<path fill="#C6A953" opacity="1.000000" stroke="none" 
	d="
M416.543030,140.997955 
	C417.919220,141.527115 419.295380,142.056274 421.058380,142.707092 
	C421.445190,142.828781 421.359100,142.745804 421.359100,142.745804 
	C421.476685,142.876556 421.594299,143.007294 421.987671,143.467621 
	C422.577240,143.914963 422.890991,144.032730 423.204773,144.150497 
	C424.014618,144.539490 424.824493,144.928482 425.675751,145.786865 
	C424.972076,146.496689 424.226959,146.737122 423.163452,146.791595 
	C420.868744,145.560486 418.892487,144.515320 416.772156,143.346359 
	C416.402710,143.088669 416.159119,143.028275 415.519257,142.976257 
	C414.695007,142.667816 414.248810,142.424469 413.699646,142.115112 
	C413.596710,142.049118 413.119080,141.963913 412.796814,141.934769 
	C412.290741,141.792755 412.106903,141.679901 411.749023,141.413208 
	C411.129578,141.145416 410.684204,141.031448 409.836365,140.871124 
	C407.900208,140.315735 406.366486,139.806686 404.650513,139.195297 
	C404.056488,139.034927 403.644745,138.976883 402.777466,138.881836 
	C401.446320,138.597092 400.570648,138.349380 399.494080,138.042236 
	C398.875153,137.983231 398.457153,137.983627 397.604370,138.016632 
	C385.961914,136.378433 374.795654,136.428345 363.697906,138.910950 
	C351.599548,141.617401 340.648712,147.013947 330.061951,152.993652 
	C330.064240,152.024673 330.093536,151.378815 330.122803,150.732941 
	C354.646545,134.245667 381.257874,131.030228 409.992126,138.563705 
	C410.826385,138.939331 411.178467,138.996887 411.530548,139.054443 
	C412.125854,139.226242 412.721161,139.398056 413.737671,139.812927 
	C414.158875,140.056000 414.504333,140.117310 414.504333,140.117310 
	C414.812347,140.213974 415.120331,140.310654 415.881836,140.692871 
	C416.335297,140.978394 416.543030,140.997955 416.543030,140.997955 
z"/>
<path fill="#CBAA51" opacity="1.000000" stroke="none" 
	d="
M248.946442,164.037704 
	C248.730591,158.313919 248.514755,152.590149 248.781311,146.418045 
	C254.060516,145.298965 259.585541,148.114731 263.455292,143.005569 
	C263.523193,149.357040 263.591064,155.708527 263.162170,162.517609 
	C258.092407,163.329391 253.519424,163.683548 248.946442,164.037704 
M262.457458,151.493515 
	C262.457458,151.493515 262.499878,151.471527 262.457458,151.493515 
z"/>
<path fill="#C3A14A" opacity="1.000000" stroke="none" 
	d="
M248.881256,164.410706 
	C253.519424,163.683548 258.092407,163.329391 263.057617,162.973114 
	C263.525574,167.992889 263.601318,173.014801 263.597351,178.494171 
	C260.229645,179.915878 256.972473,181.008957 253.644424,181.805984 
	C250.660675,182.520569 248.904831,181.460617 248.957184,178.033539 
	C249.024628,173.618668 248.873230,169.200485 248.881256,164.410706 
z"/>
<path fill="#E9CB68" opacity="1.000000" stroke="none" 
	d="
M247.845078,79.809303 
	C254.531052,79.018738 258.558319,74.419067 263.155090,70.157700 
	C263.495575,74.363861 263.568970,78.723892 263.191498,83.585571 
	C261.870789,85.170044 260.525787,86.133690 260.218781,87.357681 
	C259.237030,91.271988 256.964996,91.901283 254.160812,89.665253 
	C251.796295,87.779816 250.009384,85.170052 247.966797,82.880905 
	C247.887115,81.966049 247.807434,81.051193 247.845078,79.809303 
z"/>
<path fill="#A58B43" opacity="1.000000" stroke="none" 
	d="
M282.719330,192.876205 
	C294.605347,179.222183 307.275970,166.402527 322.596954,156.003876 
	C323.632568,156.414886 324.157288,156.680115 324.495605,157.202423 
	C309.315308,168.483917 295.999084,181.283340 284.013458,195.210892 
	C283.563904,194.226990 283.141632,193.551605 282.719330,192.876205 
z"/>
<path fill="#D3B357" opacity="1.000000" stroke="none" 
	d="
M263.558899,142.562790 
	C259.585541,148.114731 254.060516,145.298965 248.833740,145.949585 
	C248.293472,143.843521 248.183167,141.757568 247.952972,139.237946 
	C247.788193,138.446106 247.743317,138.087936 247.925125,137.165604 
	C248.228912,136.388245 248.306030,136.175049 248.383133,135.961868 
	C253.113373,135.303284 257.843628,134.644699 262.999817,133.978302 
	C263.504700,136.687012 263.583588,139.403503 263.558899,142.562790 
z"/>
<path fill="#AB8C41" opacity="1.000000" stroke="none" 
	d="
M464.333374,229.914948 
	C463.989624,230.021362 463.739227,230.013763 463.177856,229.569656 
	C462.938599,227.467453 463.010345,225.801773 463.109894,223.742981 
	C463.226257,222.567612 463.314819,221.785370 463.554108,220.720886 
	C463.669708,219.809586 463.634613,219.180481 463.558624,218.186462 
	C463.561127,216.354019 463.604523,214.886475 463.742371,213.119034 
	C463.718750,212.220367 463.600647,211.621628 463.407104,210.609146 
	C463.252136,209.076645 463.172638,207.957886 463.132629,206.481781 
	C462.906494,204.749146 462.640900,203.373871 462.246338,201.634186 
	C459.206390,193.220703 456.295380,185.171600 453.707886,176.939148 
	C454.390167,176.416458 454.748993,176.077118 455.107819,175.737778 
	C459.832367,183.763733 463.806122,192.047043 464.178894,201.605637 
	C464.445343,208.437790 464.769501,215.267700 465.095947,222.871887 
	C465.184937,223.892365 465.245819,224.139557 465.306671,224.386734 
	C465.380096,224.707535 465.378662,225.027985 465.111023,225.893860 
	C464.900085,226.884811 464.880493,227.329987 464.860901,227.775177 
	C464.860901,227.775177 464.897675,227.878845 464.690063,228.139435 
	C464.460846,228.768814 464.439240,229.137589 464.417633,229.506363 
	C464.417633,229.506363 464.426666,229.800903 464.333374,229.914948 
z"/>
<path fill="#B39649" opacity="1.000000" stroke="none" 
	d="
M427.039764,146.270493 
	C437.641235,152.279724 445.806305,160.800034 452.344971,171.339844 
	C451.601624,171.836761 450.945221,171.900940 450.046051,171.721848 
	C442.210602,163.948441 434.617920,156.418304 427.119629,148.675781 
	C427.155975,147.732437 427.097870,147.001465 427.039764,146.270493 
z"/>
<path fill="#E6CA69" opacity="1.000000" stroke="none" 
	d="
M247.842987,83.269043 
	C250.009384,85.170052 251.796295,87.779816 254.160812,89.665253 
	C256.964996,91.901283 259.237030,91.271988 260.218781,87.357681 
	C260.525787,86.133690 261.870789,85.170044 263.068970,84.034424 
	C263.480835,86.698738 263.564362,89.415848 263.531982,92.573112 
	C258.742523,96.367958 253.693298,94.231476 248.369339,94.012825 
	C247.881912,90.559624 247.800537,87.108398 247.842987,83.269043 
z"/>
<path fill="#A2843C" opacity="1.000000" stroke="none" 
	d="
M282.432251,193.020294 
	C283.141632,193.551605 283.563904,194.226990 283.771057,195.357361 
	C283.422791,195.946228 283.289673,196.080109 283.191284,196.205948 
	C283.226044,196.197922 283.197723,196.179794 282.937256,196.437805 
	C282.511536,196.875870 282.346252,197.055923 282.213623,197.226349 
	C282.246277,197.216736 282.205780,197.198135 281.950500,197.475769 
	C278.792053,201.523285 275.888855,205.293152 272.985657,209.063019 
	C270.789337,207.858261 268.593018,206.653519 266.208557,205.180817 
	C268.847870,206.951141 270.830872,206.233185 272.933563,203.489700 
	C275.731537,199.839035 279.050171,196.587433 282.432251,193.020294 
z"/>
<path fill="#AD8E43" opacity="1.000000" stroke="none" 
	d="
M248.336456,135.499115 
	C248.306030,136.175049 248.228912,136.388245 247.992737,136.901764 
	C247.730331,131.984589 247.627014,126.767090 247.660461,121.151588 
	C247.961426,125.514503 248.125610,130.275421 248.336456,135.499115 
z"/>
<path fill="#E6CA69" opacity="1.000000" stroke="none" 
	d="
M261.987091,113.372482 
	C262.285187,112.114807 262.585571,111.213257 263.136108,110.159065 
	C263.464783,112.376633 263.543274,114.746841 263.507446,117.548462 
	C262.925171,116.562798 262.457275,115.145699 261.987091,113.372482 
z"/>
<path fill="#C6A953" opacity="1.000000" stroke="none" 
	d="
M324.682007,156.945343 
	C324.157288,156.680115 323.632568,156.414886 322.930389,155.906647 
	C324.216125,154.608673 325.679321,153.553696 327.517273,152.780548 
	C327.908020,153.610825 327.924042,154.159256 327.911682,154.788788 
	C327.883270,154.869888 327.711456,154.871231 327.449036,154.907700 
	C326.790039,155.274582 326.393402,155.604996 325.819641,156.154541 
	C325.322357,156.564255 325.002167,156.754807 324.682007,156.945343 
z"/>
<path fill="#AB8C41" opacity="1.000000" stroke="none" 
	d="
M450.288788,171.965118 
	C450.945221,171.900940 451.601624,171.836761 452.484009,171.668274 
	C453.190460,172.248413 453.670990,172.932877 453.732239,173.826630 
	C452.763336,174.064117 452.213715,174.092285 451.438019,173.982758 
	C450.904205,173.218414 450.596497,172.591766 450.288788,171.965118 
z"/>
<path fill="#FDDB72" opacity="1.000000" stroke="none" 
	d="
M277.320801,38.023514 
	C276.322388,37.380566 275.704010,36.781326 275.009613,35.847878 
	C275.522461,35.455837 276.111328,35.398010 277.479309,35.581711 
	C278.944611,35.734371 279.630768,35.645504 280.316956,35.556637 
	C280.316956,35.556633 280.349518,35.489616 280.291870,35.887756 
	C280.150909,36.814476 280.067566,37.343052 279.984222,37.871632 
	C279.223083,37.936829 278.461975,38.002026 277.320801,38.023514 
z"/>
<path fill="#A58B43" opacity="1.000000" stroke="none" 
	d="
M327.940063,154.707672 
	C327.924042,154.159256 327.908020,153.610825 327.838287,152.654236 
	C328.402679,151.745316 329.020813,151.244568 329.880859,150.738373 
	C330.093536,151.378815 330.064240,152.024673 329.942596,153.234985 
	C329.213501,154.102173 328.576782,154.404922 327.940063,154.707672 
z"/>
<path fill="#B79D4F" opacity="1.000000" stroke="none" 
	d="
M426.840393,146.086929 
	C427.097870,147.001465 427.155975,147.732437 426.836853,148.604553 
	C425.467010,148.156326 424.474457,147.566940 423.481873,146.977539 
	C424.226959,146.737122 424.972076,146.496689 425.912720,146.030029 
	C426.285828,145.837006 426.463440,145.870178 426.840393,146.086929 
z"/>
<path fill="#FDDB72" opacity="1.000000" stroke="none" 
	d="
M264.925140,35.422825 
	C264.274506,35.687263 263.313812,35.854542 262.200500,35.768074 
	C262.903595,35.451435 263.759338,35.388550 264.925140,35.422825 
z"/>
<path fill="#FDDB72" opacity="1.000000" stroke="none" 
	d="
M236.870117,35.422054 
	C235.655960,35.813835 234.105469,36.108257 232.554993,36.402679 
	C232.656555,36.276779 232.741592,36.130600 232.864288,36.030643 
	C232.988403,35.929523 233.149811,35.874165 233.535843,35.655472 
	C234.695801,35.449696 235.614807,35.387196 236.870117,35.422054 
z"/>
<path fill="#B39649" opacity="1.000000" stroke="none" 
	d="
M451.664093,174.120453 
	C452.213715,174.092285 452.763336,174.064117 453.725830,174.038055 
	C454.367065,174.318771 454.595459,174.597336 454.445679,175.484207 
	C453.790131,176.328583 453.512817,176.564667 453.011719,176.579376 
	C452.413330,175.612137 452.038727,174.866302 451.664093,174.120453 
z"/>
<path fill="#816B34" opacity="1.000000" stroke="none" 
	d="
M463.035828,236.432068 
	C462.911285,236.120728 462.960938,235.686584 463.128113,234.942200 
	C463.233734,235.191086 463.221893,235.750168 463.035828,236.432068 
z"/>
<path fill="#816B34" opacity="1.000000" stroke="none" 
	d="
M461.004883,242.475098 
	C460.911346,242.214981 460.989594,241.824326 461.188599,241.273285 
	C461.265106,241.523438 461.220886,241.934006 461.004883,242.475098 
z"/>
<path fill="#816B34" opacity="1.000000" stroke="none" 
	d="
M465.024658,227.632355 
	C464.880493,227.329987 464.900085,226.884811 465.034424,226.123383 
	C465.162201,226.367950 465.175293,226.928741 465.024658,227.632355 
z"/>
<path fill="#AD8E43" opacity="1.000000" stroke="none" 
	d="
M247.579422,52.316128 
	C247.819031,52.603313 247.928345,53.144032 247.903503,53.937412 
	C247.662613,53.649937 247.555862,53.109798 247.579422,52.316128 
z"/>
<path fill="#B79D4F" opacity="1.000000" stroke="none" 
	d="
M411.404541,138.912781 
	C411.178467,138.996887 410.826385,138.939331 410.324158,138.782288 
	C410.542206,138.712234 410.910370,138.741669 411.404541,138.912781 
z"/>
<path fill="#B79D4F" opacity="1.000000" stroke="none" 
	d="
M423.123657,143.986786 
	C422.890991,144.032730 422.577240,143.914963 422.138184,143.684219 
	C422.356140,143.655197 422.699371,143.739136 423.123657,143.986786 
z"/>
<path fill="#E6CA69" opacity="1.000000" stroke="none" 
	d="
M280.234131,37.937294 
	C280.067566,37.343052 280.150909,36.814476 280.328278,35.895695 
	C280.422302,35.505493 280.689850,35.323395 280.842773,35.866768 
	C281.028839,36.693794 281.061951,36.977448 281.095032,37.261093 
	C280.891357,37.508381 280.687683,37.755669 280.234131,37.937294 
z"/>
<path fill="#E6CA69" opacity="1.000000" stroke="none" 
	d="
M280.025726,35.414150 
	C279.630768,35.645504 278.944611,35.734371 277.743225,35.724335 
	C278.063507,35.507504 278.899017,35.389580 280.025726,35.414150 
z"/>
<path fill="#B79D4F" opacity="1.000000" stroke="none" 
	d="
M416.543823,140.903030 
	C416.543030,140.997955 416.335297,140.978394 416.298828,140.938965 
	C416.262390,140.899536 416.544586,140.808105 416.543823,140.903030 
z"/>
<path fill="#816B34" opacity="1.000000" stroke="none" 
	d="
M463.989349,232.573059 
	C463.873413,232.582825 463.877533,232.269745 463.942627,232.127289 
	C464.240906,232.135941 464.273438,232.328766 463.989349,232.573059 
z"/>
<path fill="#B79D4F" opacity="1.000000" stroke="none" 
	d="
M414.484344,140.003250 
	C414.504333,140.117310 414.158875,140.056000 413.998871,139.983063 
	C414.028442,139.733719 414.236938,139.726730 414.484344,140.003250 
z"/>
<path fill="#AD8E43" opacity="1.000000" stroke="none" 
	d="
M263.680542,103.766098 
	C263.481781,103.741066 263.382721,103.449005 263.432709,103.060837 
	C263.647919,103.142845 263.714081,103.320961 263.680542,103.766098 
z"/>
<path fill="#AD8E43" opacity="1.000000" stroke="none" 
	d="
M247.000854,49.181793 
	C247.122696,49.180504 247.318893,49.317745 247.264893,49.424309 
	C247.210876,49.530869 246.920776,49.527660 246.920776,49.527660 
	C246.920776,49.527660 246.879013,49.183079 247.000854,49.181793 
z"/>
<path fill="#816B34" opacity="1.000000" stroke="none" 
	d="
M461.984314,239.620911 
	C461.859924,239.653366 461.896973,239.264328 461.980469,239.087402 
	C462.276917,239.116028 462.291840,239.342026 461.984314,239.620911 
z"/>
<path fill="#FDDB72" opacity="1.000000" stroke="none" 
	d="
M281.433716,37.096596 
	C281.061951,36.977448 281.028839,36.693794 280.955505,35.982880 
	C281.200989,36.014442 281.486694,36.473270 281.433716,37.096596 
z"/>
<path fill="#FDDB72" opacity="1.000000" stroke="none" 
	d="
M247.611237,35.436394 
	C247.609055,35.594082 247.336853,35.672752 246.933899,35.636673 
	C246.982513,35.467079 247.161865,35.412224 247.611237,35.436394 
z"/>
<path fill="#816B34" opacity="1.000000" stroke="none" 
	d="
M460.053406,244.717041 
	C459.897278,244.607651 459.931519,244.442413 460.111450,244.195099 
	C460.340179,244.287064 460.335754,244.469788 460.053406,244.717041 
z"/>
<path fill="#B39649" opacity="1.000000" stroke="none" 
	d="
M455.114502,175.626007 
	C454.748993,176.077118 454.390167,176.416458 453.621216,176.881546 
	C453.211090,177.007278 453.235474,176.800751 453.235474,176.800751 
	C453.512817,176.564667 453.790131,176.328583 454.495087,175.751572 
	C454.922699,175.410645 455.121216,175.514252 455.114502,175.626007 
z"/>
<path fill="#816B34" opacity="1.000000" stroke="none" 
	d="
M465.419159,224.201508 
	C465.245819,224.139557 465.184937,223.892365 465.103088,223.263962 
	C465.231964,223.260605 465.381805,223.638443 465.419159,224.201508 
z"/>
<path fill="#816B34" opacity="1.000000" stroke="none" 
	d="
M464.574615,229.275040 
	C464.439240,229.137589 464.460846,228.768814 464.644958,228.170898 
	C464.782166,228.309067 464.756897,228.676392 464.574615,229.275040 
z"/>
<path fill="#B79D4F" opacity="1.000000" stroke="none" 
	d="
M421.290924,142.814514 
	C421.359100,142.745804 421.445190,142.828781 421.486755,142.823792 
	C421.528351,142.818817 421.222748,142.883240 421.290924,142.814514 
z"/>
<path fill="#020202" opacity="1.000000" stroke="none" 
	d="
M453.011719,176.579376 
	C453.235474,176.800751 453.211090,177.007278 453.297729,177.064880 
	C456.295380,185.171600 459.206390,193.220703 462.181305,201.991409 
	C462.527863,204.088379 462.810486,205.463745 463.093109,206.839111 
	C463.172638,207.957886 463.252136,209.076645 463.308350,210.904816 
	C463.406006,212.215790 463.526947,212.817368 463.647919,213.418945 
	C463.604523,214.886475 463.561127,216.354019 463.415558,218.472992 
	C463.343384,219.750656 463.373413,220.376877 463.403381,221.003113 
	C463.314819,221.785370 463.226257,222.567612 462.910828,224.030518 
	C462.214905,226.815323 461.745880,228.919479 461.276855,231.023651 
	C455.501709,260.838837 434.415802,279.058319 404.038696,280.526581 
	C384.321075,281.479614 365.264282,277.906952 346.584351,272.012207 
	C318.892120,263.273407 292.955566,250.447235 266.076752,237.233917 
	C272.464020,232.440994 278.372406,228.007446 284.649353,223.521942 
	C285.237183,223.560715 285.456482,223.651443 286.083191,223.945526 
	C286.490601,224.148880 286.750427,224.259201 286.750427,224.259201 
	C286.750427,224.259201 287.017181,224.166748 287.302063,224.395615 
	C288.044769,224.780426 288.502594,224.936386 289.198822,225.328384 
	C291.942902,226.727310 294.448547,227.890213 296.977112,229.027466 
	C297.000000,229.001831 296.954834,229.050262 297.182251,229.287628 
	C298.226654,229.813187 299.043610,230.101364 299.864563,230.301865 
	C299.868530,230.214172 299.693054,230.220276 299.835815,230.460083 
	C300.323303,230.811768 300.667969,230.923660 301.265625,231.267014 
	C326.708160,243.917114 352.320618,254.752716 381.150269,255.032288 
	C394.734985,255.164001 407.678802,253.563324 419.192627,245.152939 
	C419.756470,244.788925 420.082916,244.454132 420.643127,244.046692 
	C421.346588,243.537704 421.816254,243.101395 422.602570,242.513199 
	C426.191650,237.890015 429.464081,233.418686 432.938507,228.682297 
	C433.623322,226.948929 434.106171,225.480621 434.728149,223.702789 
	C434.888245,223.168030 434.909241,222.942780 435.109344,222.404968 
	C435.529694,220.392578 435.770996,218.692734 436.122620,216.724823 
	C436.198883,216.077438 436.164825,215.698120 436.271545,214.948486 
	C436.232300,211.718185 436.052246,208.858185 435.930847,205.677673 
	C435.709625,204.553482 435.429749,203.749832 435.152405,202.550415 
	C432.591980,197.169662 430.744995,191.621719 427.343567,187.296051 
	C411.639526,167.324936 382.333069,162.993347 357.587524,171.905304 
	C357.536438,171.835815 357.350189,172.065231 356.978577,172.135803 
	C355.699127,172.641830 354.791321,173.077286 353.675018,173.502548 
	C353.118774,173.702591 352.770996,173.912842 351.983826,174.263306 
	C351.281219,174.562454 351.017975,174.721390 350.665833,174.818375 
	C350.576935,174.756409 350.336060,175.061935 349.997070,175.137817 
	C348.444885,175.859421 347.231750,176.505173 345.669830,177.211945 
	C332.641632,185.554840 319.962189,193.836700 306.966187,202.256775 
	C302.326508,205.703400 298.142883,209.222885 293.611633,212.216141 
	C291.804413,213.409943 289.229309,213.441208 287.003754,214.001709 
	C285.422791,213.379974 283.841858,212.758240 281.926300,212.034042 
	C281.591705,211.931595 281.477142,212.056152 281.477142,212.056152 
	C280.928406,211.811523 280.379639,211.566879 279.143829,211.059479 
	C277.286163,210.488556 276.115601,210.180405 274.945007,209.872253 
	C274.527405,209.643295 274.109772,209.414337 273.338928,209.124207 
	C275.888855,205.293152 278.792053,201.523285 281.949646,197.500504 
	C282.204071,197.247604 282.181000,197.235977 282.181000,197.235977 
	C282.346252,197.055923 282.511536,196.875870 282.926971,196.465775 
	C283.177124,196.235748 283.156525,196.213974 283.156525,196.213974 
	C283.289673,196.080109 283.422791,195.946228 283.798340,195.665863 
	C295.999084,181.283340 309.315308,168.483917 324.495605,157.202423 
	C325.002167,156.754807 325.322357,156.564255 326.083282,156.115540 
	C326.919861,155.528671 327.315643,155.199951 327.711456,154.871231 
	C327.711456,154.871231 327.883270,154.869888 327.911682,154.788788 
	C328.576782,154.404922 329.213501,154.102173 329.969604,153.558105 
	C340.648712,147.013947 351.599548,141.617401 363.697906,138.910950 
	C374.795654,136.428345 385.961914,136.378433 397.796936,138.119019 
	C398.847870,138.159760 399.271454,138.130722 399.695007,138.101669 
	C400.570648,138.349380 401.446320,138.597092 402.942657,139.024536 
	C403.986511,139.235397 404.409637,139.266510 404.832794,139.297638 
	C406.366486,139.806686 407.900208,140.315735 410.002502,141.040741 
	C411.021759,141.360138 411.472443,141.463593 411.923096,141.567032 
	C412.106903,141.679901 412.290741,141.792755 412.868469,142.062683 
	C413.262329,142.219757 413.540344,142.310638 413.540344,142.310638 
	C413.540344,142.310638 413.802612,142.181122 413.802612,142.181122 
	C414.248810,142.424469 414.695007,142.667816 415.642731,143.136017 
	C416.144257,143.360870 416.516022,143.516083 416.516022,143.516083 
	C416.516022,143.516083 416.916229,143.470154 416.916229,143.470154 
	C418.892487,144.515320 420.868744,145.560486 423.163452,146.791595 
	C424.474457,147.566940 425.467010,148.156326 426.742401,148.816940 
	C434.617920,156.418304 442.210602,163.948441 450.046051,171.721848 
	C450.596497,172.591766 450.904205,173.218414 451.438019,173.982758 
	C452.038727,174.866302 452.413330,175.612137 453.011719,176.579376 
z"/>
<path fill="#010101" opacity="1.000000" stroke="none" 
	d="
M221.406006,219.352921 
	C229.742722,223.081390 237.724640,226.676682 246.628738,230.687332 
	C243.505539,233.582870 241.187073,235.867386 238.728806,237.989990 
	C219.139557,254.904266 196.457291,265.445282 171.992645,273.839600 
	C157.760880,278.722839 145.901443,276.500549 134.056915,270.747009 
	C110.131744,259.125244 107.757530,228.111938 128.767334,211.643967 
	C143.098358,200.411011 159.532532,199.760345 175.808624,203.740768 
	C191.229050,207.511932 205.996567,213.952896 221.406006,219.352921 
z"/>
<path fill="#0B0907" opacity="1.000000" stroke="none" 
	d="
M259.506653,238.540314 
	C234.064682,257.170593 207.631531,272.815033 175.419708,275.558228 
	C176.279999,275.132660 177.098694,274.560577 178.006622,274.302826 
	C203.163376,267.161621 224.952408,254.109177 244.282425,236.695038 
	C249.648788,231.860550 254.410629,232.395432 259.506653,238.540314 
z"/>
<path fill="#080705" opacity="1.000000" stroke="none" 
	d="
M270.803192,216.696869 
	C273.937561,218.162247 277.071899,219.627625 280.606415,221.356812 
	C281.006561,221.620605 281.248260,221.981430 281.248260,221.981430 
	C278.146881,224.454712 275.067322,226.955917 271.940063,229.396011 
	C262.718933,236.590958 262.711548,236.581497 251.866531,229.967117 
	C255.926773,225.607239 259.915222,221.324448 264.046478,216.757431 
	C264.938110,215.981705 265.686951,215.490204 267.026123,215.214233 
	C268.678711,215.852127 269.740967,216.274506 270.803192,216.696869 
z"/>
<path fill="#816B34" opacity="1.000000" stroke="none" 
	d="
M461.484802,230.927002 
	C461.745880,228.919479 462.214905,226.815323 462.883026,224.423615 
	C463.010345,225.801773 462.938599,227.467453 462.802795,229.547089 
	C462.390045,230.250793 462.041382,230.540558 461.484802,230.927002 
z"/>
<path fill="#AE8C3E" opacity="1.000000" stroke="none" 
	d="
M281.528809,222.035828 
	C281.248260,221.981430 281.006561,221.620605 280.956268,221.409424 
	C281.916626,221.498276 282.927277,221.798279 283.967255,222.408798 
	C283.267517,222.509613 282.538452,222.299927 281.528809,222.035828 
z"/>
<path fill="#0B0907" opacity="1.000000" stroke="none" 
	d="
M173.113525,276.633484 
	C172.999573,276.477509 173.057327,276.317749 173.115067,276.158020 
	C173.171768,276.315247 173.228485,276.472504 173.113525,276.633484 
z"/>
<path fill="#AE8C3E" opacity="1.000000" stroke="none" 
	d="
M288.960388,225.092346 
	C288.502594,224.936386 288.044769,224.780426 287.279785,224.301788 
	C286.972565,223.979080 286.896790,223.801605 286.896790,223.801605 
	C288.676605,222.632431 290.450256,221.453674 292.238892,220.298111 
	C293.120270,219.728683 294.029358,219.202133 294.955780,218.317383 
	C294.985657,217.978622 295.009094,217.961624 295.454407,217.896637 
	C296.193329,217.769150 296.486908,217.706619 296.792267,217.594971 
	C296.804016,217.545853 296.904297,217.558060 296.996948,217.720490 
	C297.401672,217.892578 297.713715,217.902252 298.352417,217.908630 
	C299.070496,218.083420 299.461914,218.261505 299.745087,218.705978 
	C301.113861,222.289810 303.577332,221.665726 306.445862,220.677856 
	C307.199097,221.146744 307.657196,221.540390 308.024902,222.051880 
	C308.280121,222.093933 308.625763,222.018112 308.983856,221.971436 
	C308.996338,222.000610 308.964691,221.943558 309.279846,222.119293 
	C311.448212,222.843979 313.301422,223.392944 315.487518,223.975891 
	C316.865265,224.302399 317.910187,224.594955 319.172394,225.116394 
	C324.765900,228.149933 330.234009,230.618668 336.740082,230.058350 
	C336.943329,230.080856 337.277161,230.317139 337.301575,230.480728 
	C337.325989,230.644318 337.689117,230.827438 337.689117,230.827438 
	C337.689117,230.827438 338.007904,230.488998 338.358337,230.505936 
	C339.141052,230.695908 339.573364,230.868958 340.090179,231.328674 
	C341.750488,231.874695 343.326263,232.134048 345.268250,232.404846 
	C346.085480,232.596802 346.536530,232.777313 347.189880,233.164185 
	C348.138062,233.503876 348.883911,233.637207 349.860748,233.703186 
	C350.428314,233.633377 350.724548,233.741486 351.119629,234.139832 
	C351.801910,234.341400 352.344971,234.363281 353.331787,234.421173 
	C354.336243,234.647034 354.896942,234.836884 355.492126,235.040100 
	C355.526581,235.053436 355.672882,235.069641 356.075745,235.082550 
	C356.975555,235.292465 357.472504,235.489456 358.069702,235.879501 
	C358.770813,236.082138 359.371704,236.091736 360.322021,236.096893 
	C361.107635,236.249573 361.543823,236.406723 362.180908,236.848145 
	C364.314423,237.397171 366.247040,237.661926 368.497803,237.901337 
	C369.217773,238.002655 369.619690,238.129318 370.109131,238.357697 
	C370.196655,238.459412 370.567108,238.574524 370.567108,238.574524 
	C370.567108,238.574524 370.934143,238.438919 371.288940,238.442749 
	C372.088867,238.599716 372.533966,238.752869 373.173676,239.126007 
	C378.125244,240.013000 382.864685,241.011246 387.643585,241.264481 
	C393.846710,241.593170 400.102783,241.638382 406.294373,241.207092 
	C410.181091,240.936371 413.991241,239.566956 418.173462,238.514496 
	C419.012634,238.273575 419.514069,238.208603 420.276428,238.403397 
	C421.120209,239.997131 421.703064,241.331100 422.285919,242.665070 
	C421.816254,243.101395 421.346588,243.537704 420.412292,244.100143 
	C419.616882,244.544907 419.286072,244.863525 418.955261,245.182159 
	C407.678802,253.563324 394.734985,255.164001 381.150269,255.032288 
	C352.320618,254.752716 326.708160,243.917114 301.087341,231.070953 
	C300.335114,230.502396 300.014099,230.361343 299.693054,230.220276 
	C299.693054,230.220276 299.868530,230.214172 299.676941,230.012756 
	C298.641815,229.557663 297.798340,229.303970 296.954834,229.050262 
	C296.954834,229.050262 297.000000,229.001831 296.886414,228.691315 
	C294.168671,227.284668 291.564545,226.188507 288.960388,225.092346 
z"/>
<path fill="#A2843C" opacity="1.000000" stroke="none" 
	d="
M286.811554,214.241333 
	C289.229309,213.441208 291.804413,213.409943 293.611633,212.216141 
	C298.142883,209.222885 302.326508,205.703400 307.163330,202.375076 
	C308.105377,202.790649 308.533630,203.226135 308.753632,203.936584 
	C304.289764,207.506729 299.985504,210.743240 295.844910,214.177124 
	C295.368988,214.571808 295.806152,216.067459 295.665222,217.186707 
	C295.303375,217.503113 295.136230,217.716736 295.009094,217.961624 
	C295.009094,217.961624 294.985657,217.978622 294.970032,217.981842 
	C293.209991,218.229843 291.385162,218.909454 289.742188,218.605576 
	C287.836761,218.253143 284.011993,218.558517 286.811554,214.241333 
z"/>
<path fill="#A2843C" opacity="1.000000" stroke="none" 
	d="
M274.979614,210.095398 
	C276.115601,210.180405 277.286163,210.488556 278.698608,210.984833 
	C277.631714,210.888168 276.322968,210.603363 274.979614,210.095398 
z"/>
<path fill="#A2843C" opacity="1.000000" stroke="none" 
	d="
M270.640167,216.369827 
	C269.740967,216.274506 268.678711,215.852127 267.363586,215.199310 
	C268.232849,215.326843 269.354980,215.684814 270.640167,216.369827 
z"/>
<path fill="#A2843C" opacity="1.000000" stroke="none" 
	d="
M278.039917,216.620758 
	C278.203156,216.857910 278.211487,217.090805 278.219818,217.323715 
	C278.088409,217.319885 277.957001,217.316040 277.825592,217.312195 
	C277.845398,217.080292 277.865204,216.848404 278.039917,216.620758 
z"/>
<path fill="#A2843C" opacity="1.000000" stroke="none" 
	d="
M281.484711,212.046692 
	C281.477142,212.056152 281.591705,211.931595 281.560059,212.003052 
	C281.528381,212.074524 281.492279,212.037216 281.484711,212.046692 
z"/>
<path fill="#A2843C" opacity="1.000000" stroke="none" 
	d="
M272.492676,211.492691 
	C272.511597,211.486008 272.473755,211.499374 272.492676,211.492691 
z"/>
<path fill="#C3A14A" opacity="1.000000" stroke="none" 
	d="
M262.465637,181.516022 
	C262.454651,181.488678 262.476624,181.543365 262.465637,181.516022 
z"/>
<path fill="#A2843C" opacity="1.000000" stroke="none" 
	d="
M286.765564,223.824783 
	C286.896790,223.801605 286.972565,223.979080 286.994873,224.072906 
	C287.017181,224.166748 286.750427,224.259201 286.750427,224.259201 
	C286.750427,224.259201 286.490601,224.148880 286.431122,224.020905 
	C286.371643,223.892929 286.634338,223.847961 286.765564,223.824783 
z"/>
<path fill="#B79D4F" opacity="1.000000" stroke="none" 
	d="
M404.650513,139.195297 
	C404.409637,139.266510 403.986511,139.235397 403.398193,139.061554 
	C403.644745,138.976883 404.056488,139.034927 404.650513,139.195297 
z"/>
<path fill="#B79D4F" opacity="1.000000" stroke="none" 
	d="
M399.494080,138.042236 
	C399.271454,138.130722 398.847870,138.159760 398.231750,138.086426 
	C398.457153,137.983627 398.875153,137.983231 399.494080,138.042236 
z"/>
<path fill="#B79D4F" opacity="1.000000" stroke="none" 
	d="
M411.749023,141.413208 
	C411.472443,141.463593 411.021759,141.360138 410.404968,141.087082 
	C410.684204,141.031448 411.129578,141.145416 411.749023,141.413208 
z"/>
<path fill="#B79D4F" opacity="1.000000" stroke="none" 
	d="
M413.699646,142.115112 
	C413.802612,142.181122 413.540344,142.310638 413.540344,142.310638 
	C413.540344,142.310638 413.262329,142.219757 413.190704,142.091827 
	C413.119080,141.963913 413.596710,142.049118 413.699646,142.115112 
z"/>
<path fill="#B79D4F" opacity="1.000000" stroke="none" 
	d="
M416.772156,143.346359 
	C416.916229,143.470154 416.516022,143.516083 416.516022,143.516083 
	C416.516022,143.516083 416.144257,143.360870 416.020782,143.201111 
	C416.159119,143.028275 416.402710,143.088669 416.772156,143.346359 
z"/>
<path fill="#DBBC5D" opacity="1.000000" stroke="none" 
	d="
M262.478668,151.482513 
	C262.499878,151.471527 262.457458,151.493515 262.478668,151.482513 
z"/>
<path fill="#816B34" opacity="1.000000" stroke="none" 
	d="
M463.132629,206.481781 
	C462.810486,205.463745 462.527863,204.088379 462.310242,202.355804 
	C462.640900,203.373871 462.906494,204.749146 463.132629,206.481781 
z"/>
<path fill="#816B34" opacity="1.000000" stroke="none" 
	d="
M463.554138,220.720886 
	C463.373413,220.376877 463.343384,219.750656 463.456451,218.837906 
	C463.634613,219.180481 463.669708,219.809586 463.554138,220.720886 
z"/>
<path fill="#816B34" opacity="1.000000" stroke="none" 
	d="
M463.742371,213.119034 
	C463.526947,212.817368 463.406006,212.215790 463.383789,211.318542 
	C463.600647,211.621628 463.718750,212.220367 463.742371,213.119034 
z"/>
<path fill="#A58B43" opacity="1.000000" stroke="none" 
	d="
M282.213623,197.226349 
	C282.181000,197.235977 282.204071,197.247604 282.204926,197.222870 
	C282.205780,197.198135 282.246277,197.216736 282.213623,197.226349 
z"/>
<path fill="#A58B43" opacity="1.000000" stroke="none" 
	d="
M283.191284,196.205948 
	C283.156525,196.213974 283.177124,196.235748 283.187439,196.207764 
	C283.197723,196.179794 283.226044,196.197922 283.191284,196.205948 
z"/>
<path fill="#A58B43" opacity="1.000000" stroke="none" 
	d="
M327.449036,154.907700 
	C327.315643,155.199951 326.919861,155.528671 326.260437,155.896393 
	C326.393402,155.604996 326.790039,155.274582 327.449036,154.907700 
z"/>
<path fill="#B49546" opacity="1.000000" stroke="none" 
	d="
M435.872162,205.998199 
	C436.052246,208.858185 436.232300,211.718185 436.262604,214.585999 
	C435.976227,213.612762 435.839600,212.631683 435.612701,211.002426 
	C435.242157,211.999619 435.046234,212.291428 435.038239,212.588303 
	C434.998627,214.058533 435.008667,215.530121 434.792053,217.086823 
	C434.222626,217.439072 433.862396,217.705704 433.577881,217.593140 
	C435.316132,201.226715 428.906311,188.879608 415.930817,180.093094 
	C399.116241,168.706924 380.701996,167.416229 361.507324,172.924454 
	C361.491058,172.929520 361.488678,172.938919 361.090942,173.154495 
	C360.117737,173.540909 359.542236,173.711746 358.865479,173.787247 
	C358.493408,173.864304 358.222626,174.036697 357.566223,174.449951 
	C356.894623,174.791122 356.608612,174.891403 356.340759,175.012909 
	C356.358887,175.034119 356.445160,175.076462 356.034607,175.234207 
	C354.256317,175.907837 352.888580,176.423706 351.482849,176.937790 
	C351.444855,176.936005 351.326141,177.024719 350.860840,177.299332 
	C350.057556,177.698563 349.719604,177.823166 349.381470,177.973694 
	C349.381287,177.999634 349.465393,177.970901 348.990417,178.250702 
	C348.179138,178.678741 347.842834,178.826965 347.269958,178.946777 
	C346.695129,178.329224 346.356873,177.740082 346.018616,177.150909 
	C347.231750,176.505173 348.444885,175.859421 350.074402,175.127518 
	C350.490723,175.041351 350.754761,174.880341 350.754761,174.880341 
	C351.017975,174.721390 351.281219,174.562454 352.185394,174.238403 
	C353.178741,173.886459 353.531097,173.699600 353.883484,173.512741 
	C354.791321,173.077286 355.699127,172.641830 357.031403,172.141144 
	C357.455841,172.075928 357.638580,171.974808 357.638580,171.974808 
	C382.333069,162.993347 411.639526,167.324936 427.343567,187.296051 
	C430.744995,191.621719 432.591980,197.169662 434.938568,202.762527 
	C435.105530,204.246353 435.488831,205.122269 435.872162,205.998199 
z"/>
<path fill="#A68A42" opacity="1.000000" stroke="none" 
	d="
M345.669830,177.211945 
	C346.356873,177.740082 346.695129,178.329224 347.022217,179.131958 
	C334.328003,187.450897 321.644928,195.556244 308.961884,203.661606 
	C308.533630,203.226135 308.105377,202.790649 307.479950,202.236877 
	C319.962189,193.836700 332.641632,185.554840 345.669830,177.211945 
z"/>
<path fill="#A2843C" opacity="1.000000" stroke="none" 
	d="
M422.602570,242.513214 
	C421.703064,241.331100 421.120209,239.997131 420.579865,238.213928 
	C425.637299,237.446732 427.417511,233.269058 430.168518,229.939789 
	C430.937469,229.608444 431.467499,229.301941 432.181488,228.971741 
	C432.365479,228.948044 432.736511,228.947372 432.736511,228.947357 
	C429.464081,233.418686 426.191650,237.890015 422.602570,242.513214 
z"/>
<path fill="#A2843C" opacity="1.000000" stroke="none" 
	d="
M289.198822,225.328384 
	C291.564545,226.188507 294.168671,227.284668 296.863525,228.716965 
	C294.448547,227.890213 291.942902,226.727310 289.198822,225.328384 
z"/>
<path fill="#AE8C3E" opacity="1.000000" stroke="none" 
	d="
M433.502197,217.972321 
	C433.862396,217.705704 434.222626,217.439072 434.791443,217.086212 
	C435.000000,217.000000 434.998779,216.998779 435.001099,217.408890 
	C434.979034,219.451843 434.954651,221.084671 434.930267,222.717514 
	C434.909241,222.942780 434.888245,223.168030 434.372192,223.696075 
	C433.402740,223.981400 432.928406,223.963913 432.500000,223.754303 
	C432.545929,223.562164 432.941010,223.568207 432.938904,223.226501 
	C432.992065,222.434082 433.047333,221.983398 433.122101,221.085022 
	C433.261780,219.748993 433.381989,218.860657 433.502197,217.972321 
z"/>
<path fill="#B49546" opacity="1.000000" stroke="none" 
	d="
M432.454041,223.946442 
	C432.928406,223.963913 433.402740,223.981400 434.233063,224.005585 
	C434.106171,225.480621 433.623322,226.948929 432.938507,228.682312 
	C432.736511,228.947372 432.365479,228.948044 432.183075,228.974274 
	C432.000671,229.000488 432.006897,229.004150 431.845490,228.808228 
	C431.422546,228.400116 431.161011,228.187927 430.946655,227.667450 
	C431.480560,226.221603 431.967316,225.084015 432.454041,223.946442 
z"/>
<path fill="#AE8C3E" opacity="1.000000" stroke="none" 
	d="
M435.000610,217.000610 
	C435.008667,215.530121 434.998627,214.058533 435.038239,212.588303 
	C435.046234,212.291428 435.242157,211.999619 435.612701,211.002426 
	C435.839600,212.631683 435.976227,213.612762 436.121826,214.956329 
	C436.164825,215.698120 436.198883,216.077438 435.869232,216.727097 
	C435.336639,216.997879 435.167725,216.998337 434.998779,216.998779 
	C434.998779,216.998779 435.000000,217.000000 435.000610,217.000610 
z"/>
<path fill="#AE8C3E" opacity="1.000000" stroke="none" 
	d="
M435.930847,205.677673 
	C435.488831,205.122269 435.105530,204.246353 434.936035,203.158295 
	C435.429749,203.749832 435.709625,204.553482 435.930847,205.677673 
z"/>
<path fill="#B49546" opacity="1.000000" stroke="none" 
	d="
M435.001099,217.408890 
	C435.167725,216.998337 435.336639,216.997879 435.758911,216.995148 
	C435.770996,218.692734 435.529694,220.392578 435.109344,222.404968 
	C434.954651,221.084671 434.979034,219.451843 435.001099,217.408890 
z"/>
<path fill="#A2843C" opacity="1.000000" stroke="none" 
	d="
M297.182251,229.287628 
	C297.798340,229.303970 298.641815,229.557663 299.672974,230.100464 
	C299.043610,230.101364 298.226654,229.813187 297.182251,229.287628 
z"/>
<path fill="#A2843C" opacity="1.000000" stroke="none" 
	d="
M419.192627,245.152924 
	C419.286072,244.863525 419.616882,244.544907 420.178528,244.172821 
	C420.082916,244.454132 419.756470,244.788925 419.192627,245.152924 
z"/>
<path fill="#A68A42" opacity="1.000000" stroke="none" 
	d="
M353.675018,173.502548 
	C353.531097,173.699600 353.178741,173.886459 352.624786,174.098206 
	C352.770996,173.912842 353.118774,173.702591 353.675018,173.502548 
z"/>
<path fill="#A2843C" opacity="1.000000" stroke="none" 
	d="
M299.835815,230.460083 
	C300.014099,230.361343 300.335114,230.502396 300.834412,230.839508 
	C300.667969,230.923660 300.323303,230.811768 299.835815,230.460083 
z"/>
<path fill="#A68A42" opacity="1.000000" stroke="none" 
	d="
M350.665833,174.818375 
	C350.754761,174.880341 350.490723,175.041351 350.413391,175.051636 
	C350.336060,175.061935 350.576935,174.756409 350.665833,174.818375 
z"/>
<path fill="#A68A42" opacity="1.000000" stroke="none" 
	d="
M357.587524,171.905304 
	C357.638580,171.974808 357.455841,172.075928 357.403015,172.070587 
	C357.350189,172.065231 357.536438,171.835815 357.587524,171.905304 
z"/>
<path fill="#020201" opacity="1.000000" stroke="none" 
	d="
M432.500000,223.754303 
	C431.967316,225.084015 431.480560,226.221603 430.762390,227.796173 
	C430.325684,228.483932 430.259521,228.767181 430.197632,229.192780 
	C429.909790,229.501434 429.865387,229.722107 429.929565,229.964630 
	C427.417511,233.269058 425.637299,237.446732 420.318970,237.954163 
	C419.514069,238.208603 419.012634,238.273575 417.785187,238.480927 
	C414.765442,238.994934 412.467377,239.709885 410.178680,239.680954 
	C397.777527,239.524139 385.378723,239.183395 372.979095,238.906006 
	C372.533966,238.752869 372.088867,238.599716 371.072876,238.337189 
	C370.502014,238.227783 370.021576,238.255997 370.021576,238.255981 
	C369.619690,238.129318 369.217773,238.002655 368.188354,237.725204 
	C365.700592,237.237564 363.840302,236.900711 361.980042,236.563873 
	C361.543823,236.406723 361.107635,236.249573 360.100159,235.948059 
	C359.009094,235.764603 358.489288,235.725540 357.969452,235.686462 
	C357.472504,235.489456 356.975555,235.292465 356.075775,234.994843 
	C355.672974,234.894226 355.457672,235.026749 355.457672,235.026749 
	C354.896942,234.836884 354.336243,234.647034 353.193451,234.258759 
	C352.067719,234.026962 351.524078,233.993561 350.980408,233.960175 
	C350.724548,233.741486 350.428314,233.633377 349.654907,233.489410 
	C348.474609,233.214600 347.731079,233.086197 346.987579,232.957809 
	C346.536530,232.777313 346.085480,232.596802 345.043457,232.209198 
	C342.970215,231.682068 341.487946,231.362030 340.005646,231.042007 
	C339.573364,230.868958 339.141052,230.695908 338.189270,230.405029 
	C337.669800,230.287170 337.277161,230.317139 337.277161,230.317139 
	C337.277161,230.317139 336.943329,230.080856 336.468567,229.881989 
	C330.314240,228.084595 324.634644,226.486038 318.955078,224.887497 
	C317.910187,224.594955 316.865265,224.302399 315.198547,223.849518 
	C312.706055,223.107300 310.835388,222.525421 308.964691,221.943558 
	C308.964691,221.943558 308.996338,222.000610 308.770386,221.916626 
	C308.544403,221.832657 308.115295,221.934021 308.115295,221.934021 
	C307.657196,221.540390 307.199097,221.146744 306.198853,220.460419 
	C303.722198,219.591705 301.787781,219.015656 299.853333,218.439606 
	C299.461914,218.261505 299.070496,218.083420 298.090820,217.760559 
	C297.303101,217.596527 297.103699,217.577301 296.904297,217.558060 
	C296.904297,217.558060 296.804016,217.545853 296.598877,217.371338 
	C296.202484,217.148743 296.011200,217.100693 295.819946,217.052658 
	C295.806152,216.067459 295.368988,214.571808 295.844910,214.177124 
	C299.985504,210.743240 304.289764,207.506729 308.753632,203.936584 
	C321.644928,195.556244 334.328003,187.450897 347.258789,179.160370 
	C347.842834,178.826965 348.179138,178.678741 348.930939,178.265869 
	C349.346466,178.001205 349.381653,177.947754 349.381653,177.947754 
	C349.719604,177.823166 350.057556,177.698563 350.895447,177.379883 
	C351.395355,177.185837 351.520844,176.939590 351.520844,176.939575 
	C352.888580,176.423706 354.256317,175.907837 356.057556,175.195404 
	C356.491028,174.998871 356.322601,174.991699 356.322601,174.991699 
	C356.608612,174.891403 356.894623,174.791122 357.756409,174.486877 
	C358.613007,174.259460 358.824554,174.126007 358.966736,173.882584 
	C359.542236,173.711746 360.117737,173.540909 361.049194,173.207367 
	C361.405182,173.044678 361.523621,172.919388 361.523621,172.919388 
	C380.701996,167.416229 399.116241,168.706924 415.930817,180.093094 
	C428.906311,188.879608 435.316132,201.226715 433.577881,217.593124 
	C433.381989,218.860657 433.261780,219.748993 432.991272,221.266724 
	C432.874298,222.453476 432.907654,223.010834 432.941010,223.568207 
	C432.941010,223.568207 432.545929,223.562164 432.500000,223.754303 
z"/>
<path fill="#A2843C" opacity="1.000000" stroke="none" 
	d="
M373.173676,239.126007 
	C385.378723,239.183395 397.777527,239.524139 410.178680,239.680954 
	C412.467377,239.709885 414.765442,238.994934 417.447479,238.656891 
	C413.991241,239.566956 410.181091,240.936371 406.294373,241.207092 
	C400.102783,241.638382 393.846710,241.593170 387.643585,241.264481 
	C382.864685,241.011246 378.125244,240.013000 373.173676,239.126007 
z"/>
<path fill="#A2843C" opacity="1.000000" stroke="none" 
	d="
M319.172394,225.116394 
	C324.634644,226.486038 330.314240,228.084595 336.265320,229.859497 
	C330.234009,230.618668 324.765900,228.149933 319.172394,225.116394 
z"/>
<path fill="#A2843C" opacity="1.000000" stroke="none" 
	d="
M299.745087,218.705978 
	C301.787781,219.015656 303.722198,219.591705 305.903687,220.385178 
	C303.577332,221.665726 301.113861,222.289810 299.745087,218.705978 
z"/>
<path fill="#A2843C" opacity="1.000000" stroke="none" 
	d="
M340.090179,231.328674 
	C341.487946,231.362030 342.970215,231.682068 344.677277,232.197754 
	C343.326263,232.134048 341.750488,231.874695 340.090179,231.328674 
z"/>
<path fill="#A2843C" opacity="1.000000" stroke="none" 
	d="
M309.279846,222.119293 
	C310.835388,222.525421 312.706055,223.107300 314.865723,223.815552 
	C313.301422,223.392944 311.448212,222.843979 309.279846,222.119293 
z"/>
<path fill="#A2843C" opacity="1.000000" stroke="none" 
	d="
M362.180908,236.848145 
	C363.840302,236.900711 365.700592,237.237564 367.870270,237.750549 
	C366.247040,237.661926 364.314423,237.397171 362.180908,236.848145 
z"/>
<path fill="#A2843C" opacity="1.000000" stroke="none" 
	d="
M351.119629,234.139847 
	C351.524078,233.993561 352.067719,234.026962 352.749695,234.222778 
	C352.344971,234.363281 351.801910,234.341400 351.119629,234.139847 
z"/>
<path fill="#A2843C" opacity="1.000000" stroke="none" 
	d="
M358.069702,235.879517 
	C358.489288,235.725540 359.009094,235.764603 359.750763,235.952515 
	C359.371704,236.091736 358.770813,236.082138 358.069702,235.879517 
z"/>
<path fill="#A2843C" opacity="1.000000" stroke="none" 
	d="
M347.189880,233.164185 
	C347.731079,233.086197 348.474609,233.214600 349.423950,233.556763 
	C348.883911,233.637207 348.138062,233.503876 347.189880,233.164185 
z"/>
<path fill="#A2843C" opacity="1.000000" stroke="none" 
	d="
M308.024902,222.051880 
	C308.115295,221.934021 308.544403,221.832657 308.757874,221.887466 
	C308.625763,222.018112 308.280121,222.093933 308.024902,222.051880 
z"/>
<path fill="#A2843C" opacity="1.000000" stroke="none" 
	d="
M337.301575,230.480728 
	C337.277161,230.317139 337.669800,230.287170 337.838867,230.388092 
	C338.007904,230.488998 337.689117,230.827438 337.689117,230.827438 
	C337.689117,230.827438 337.325989,230.644318 337.301575,230.480728 
z"/>
<path fill="#A2843C" opacity="1.000000" stroke="none" 
	d="
M355.492126,235.040100 
	C355.457672,235.026749 355.672974,234.894226 355.672913,234.981934 
	C355.672882,235.069641 355.526581,235.053436 355.492126,235.040100 
z"/>
<path fill="#A2843C" opacity="1.000000" stroke="none" 
	d="
M370.109131,238.357697 
	C370.021576,238.255997 370.502014,238.227783 370.718079,238.333344 
	C370.934143,238.438919 370.567108,238.574524 370.567108,238.574524 
	C370.567108,238.574524 370.196655,238.459412 370.109131,238.357697 
z"/>
<path fill="#AD8E43" opacity="1.000000" stroke="none" 
	d="
M295.665222,217.186707 
	C296.011200,217.100693 296.202484,217.148743 296.587158,217.420456 
	C296.486908,217.706619 296.193329,217.769150 295.454407,217.896637 
	C295.136230,217.716736 295.303375,217.503113 295.665222,217.186707 
z"/>
<path fill="#AD8E43" opacity="1.000000" stroke="none" 
	d="
M296.996948,217.720490 
	C297.103699,217.577301 297.303101,217.596527 297.764160,217.763855 
	C297.713715,217.902252 297.401672,217.892578 296.996948,217.720490 
z"/>
<path fill="#A68A42" opacity="1.000000" stroke="none" 
	d="
M358.865479,173.787247 
	C358.824554,174.126007 358.613007,174.259460 358.141968,174.246002 
	C358.222626,174.036697 358.493408,173.864304 358.865479,173.787247 
z"/>
<path fill="#A68A42" opacity="1.000000" stroke="none" 
	d="
M349.381470,177.973694 
	C349.381653,177.947754 349.346466,178.001205 349.405945,177.986053 
	C349.465393,177.970901 349.381287,177.999634 349.381470,177.973694 
z"/>
<path fill="#A68A42" opacity="1.000000" stroke="none" 
	d="
M351.482849,176.937805 
	C351.520844,176.939590 351.395355,177.185837 351.360748,177.105286 
	C351.326141,177.024719 351.444855,176.936005 351.482849,176.937805 
z"/>
<path fill="#A68A42" opacity="1.000000" stroke="none" 
	d="
M356.340759,175.012909 
	C356.322601,174.991699 356.491028,174.998871 356.468079,175.037659 
	C356.445160,175.076462 356.358887,175.034119 356.340759,175.012909 
z"/>
<path fill="#A68A42" opacity="1.000000" stroke="none" 
	d="
M361.507324,172.924454 
	C361.523621,172.919388 361.405182,173.044678 361.446930,172.991791 
	C361.488678,172.938919 361.491058,172.929520 361.507324,172.924454 
z"/>
<path fill="#B49546" opacity="1.000000" stroke="none" 
	d="
M430.168518,229.939789 
	C429.865387,229.722107 429.909790,229.501434 430.476807,229.182220 
	C431.262878,229.042603 431.634888,229.023376 432.006897,229.004150 
	C432.006897,229.004150 432.000671,229.000488 431.999084,228.997971 
	C431.467499,229.301941 430.937469,229.608444 430.168518,229.939789 
z"/>
<path fill="#B49546" opacity="1.000000" stroke="none" 
	d="
M432.938904,223.226501 
	C432.907654,223.010834 432.874298,222.453476 432.971741,221.714401 
	C433.047333,221.983398 432.992065,222.434082 432.938904,223.226501 
z"/>
<path fill="#A2843C" opacity="1.000000" stroke="none" 
	d="
M431.845490,228.808228 
	C431.634888,229.023376 431.262878,229.042603 430.611694,229.072388 
	C430.259521,228.767181 430.325684,228.483932 430.715240,228.104462 
	C431.161011,228.187927 431.422546,228.400116 431.845490,228.808228 
z"/>
</svg>