<?xml version="1.0" encoding="utf-8"?>
<!-- Generator: Adobe Illustrator 26.0.1, SVG Export Plug-In . SVG Version: 6.00 Build 0)  -->
<svg version="1.1" id="Layer_2" xmlns="http://www.w3.org/2000/svg" xmlns:xlink="http://www.w3.org/1999/xlink" x="0px" y="0px"
	 viewBox="0 0 841.89 595.28" style="enable-background:new 0 0 841.89 595.28;" xml:space="preserve">
<style type="text/css">
	.st0{fill:url(#SVGID_1_);}
</style>
<linearGradient id="SVGID_1_" gradientUnits="userSpaceOnUse" x1="420.1771" y1="550.2642" x2="422.8526" y2="135.881">
	<stop  offset="0" style="stop-color:#B4922E"/>
	<stop  offset="0.3162" style="stop-color:#C3A23E"/>
	<stop  offset="0.9358" style="stop-color:#EBCC69"/>
	<stop  offset="1" style="stop-color:#EFD16E"/>
</linearGradient>
<path class="st0" d="M756.11,366.81c-15.64-60.55-54.91-89.87-85.1-103.8c-31.94-14.73-59.91-15.78-62.26-15.85
	c-2.1-0.29-25.17-3-62,10.28c-34.71,12.52-88.66,42.34-148.57,113.33c-5.31,6.29-10.59,12.31-15.83,18.09
	c-13.31-10.05-13.13-21.69-13.13-21.69V80.66c1.29-27.51,35.25-21.06,35.25-21.06l-0.01-4.3H300.85v4.3c0,0,33.96-6.45,35.25,21.06
	c1.29,27.51,0,278.11,0,278.11s-5.16,23.64-35.25,23.21v4.3c0,0,24.42,1.81,67.63,17.46c-9.45,9.79-18.74,18.79-27.83,27.05
	c-61.85-28.85-133.81-56.83-180.24-56.83c-0.17,0-0.36,0-0.53,0c-43.82,0-79.47,35.69-79.47,79.57c0,42.68,33.26,76.09,79.12,79.45
	c35.77,2.05,76.07-7.34,123.19-28.7c24.41-10.24,54.33-31.24,86.58-55.4c33.08,16.36,60.83,31.49,76.3,40.14
	c13.14,7.35,25.36,13.36,37.36,18.38c51.68,21.61,100.38,32.59,141.84,32.59c28.18,0,53.03-5.07,73.2-15.32
	c30.47-15.48,50.4-42.07,59.22-79.02C763.27,420.31,762.89,393.06,756.11,366.81z M281.15,500.69
	c-46.58,21.12-86.31,30.4-121.38,28.38c-43.73-3.2-75.46-34.97-75.46-75.54c0-41.72,33.9-75.66,75.57-75.66c0.18,0,0.35,0,0.52,0
	c45.46,0,116.02,27.32,177.11,55.75c-86.37,77.32-153.43,88.55-154.25,88.67l0.59,3.86c0.83-0.13,69.54-11.56,157.5-90.74
	c8.22,3.85,16.25,7.72,24.01,11.53C333.92,470.44,304.81,490.76,281.15,500.69z M368.86,444.31c-7.87-3.87-16.02-7.81-24.38-11.74
	c9.16-8.37,18.52-17.47,28.02-27.37c9.54,3.55,19.93,7.75,31.14,12.74c-3.36,2.55-6.69,5.08-9.99,7.6
	C385.27,431.9,377,438.2,368.86,444.31z M753.42,444.73c-8.55,35.79-27.79,61.51-57.19,76.44
	c-48.83,24.81-126.01,18.47-211.77-17.39c-11.86-4.96-23.96-10.91-36.96-18.18c-15.24-8.52-42.31-23.29-74.71-39.35
	c7.64-5.74,15.39-11.65,23.23-17.61c3.85-2.93,7.75-5.9,11.67-8.88c8.26,3.75,16.91,7.88,25.98,12.5c0,0,90.27,50.72,172.37,50.29
	c39.51-2.15,69.18-20.99,77.03-29.95l0,0c19.03-18.31,27.68-37.99,25.19-59.03c-3.4-28.77-26.22-51.65-44.73-62.51
	c-33.16-19.45-73.36-22.36-110.31-7.97c-42.11,16.4-88.54,48.97-131.98,81.53c-7.06-2.4-13.83-4.64-20.2-6.61
	c-6.32-1.96-11.38-4.35-15.44-6.91c5.16-5.7,10.35-11.62,15.57-17.81c59.21-70.16,112.4-99.66,146.59-112.06
	c36.98-13.4,60.31-10.22,60.54-10.19l0.24,0.02c0.29,0.01,29.02,0.78,60.96,15.55c29.37,13.58,67.58,42.16,82.82,101.16
	C758.94,393.42,759.32,420.02,753.42,444.73z M703.73,411.42c-4.77,24.11-25.59,41.72-50.05,44.1c-14.66,1.42-34.67,1.57-60.56-1.25
	c-52.24-5.68-116.96-30.76-167.39-48.1c42.61-31.87,87.95-63.46,128.92-79.42c35.82-13.95,74.79-11.15,106.91,7.7
	c19.14,11.23,39.8,34.01,42.83,59.6C705.08,399.92,704.86,405.72,703.73,411.42z"/>
</svg>
